<svg xmlns="http://www.w3.org/2000/svg" viewBox="0 0 34 34"><g id="Layer_2" data-name="Layer 2"><g id="back"><path d="M6.18,34H27.82A6.21,6.21,0,0,0,34,27.77V6.23A6.21,6.21,0,0,0,27.82,0H6.18A6.21,6.21,0,0,0,0,6.23V27.77A6.21,6.21,0,0,0,6.18,34ZM4.44,11.65a7.27,7.27,0,0,1,7.25-7.31H22.31a7.27,7.27,0,0,1,7.25,7.31v10.7a7.27,7.27,0,0,1-7.25,7.31H11.69a7.27,7.27,0,0,1-7.25-7.31Z"/><path d="M11.56,27.39H22.44a4.83,4.83,0,0,0,4.81-4.85V11.59a4.83,4.83,0,0,0-4.81-4.85H11.56a4.83,4.83,0,0,0-4.81,4.85v11A4.83,4.83,0,0,0,11.56,27.39ZM23.74,8.71a1.53,1.53,0,1,1-1.52,1.53A1.53,1.53,0,0,1,23.74,8.71ZM17,10.49a6.57,6.57,0,1,1-6.52,6.57A6.55,6.55,0,0,1,17,10.49Z"/><path d="M17,21.32a4.26,4.26,0,1,0-4.23-4.26A4.24,4.24,0,0,0,17,21.32Z"/></g></g></svg>