<svg xmlns="http://www.w3.org/2000/svg" viewBox="0 0 34 34"><defs><style>.cls-1{fill:#1d1d1b;}</style></defs><g id="Layer_2" data-name="Layer 2"><g id="back"><path d="M27.82,0H6.18A6.21,6.21,0,0,0,0,6.23V27.77A6.21,6.21,0,0,0,6.18,34H27.82A6.21,6.21,0,0,0,34,27.77V6.23A6.21,6.21,0,0,0,27.82,0ZM17,26.15A16.56,16.56,0,0,1,14.54,26l-5.11,3.5c-.29.19-.73.2-.55-.53s.87-3.32,1.15-4.36c-3.78-1.86-6.29-5.19-6.29-9C3.74,9.75,9.67,5,17,5S30.26,9.75,30.26,15.59,24.33,26.15,17,26.15Z"/><path class="cls-1" d="M7.7,13.66H9.08s0,3.87,0,4.76c0,.65,1.44.68,1.44,0V13.79a7.37,7.37,0,0,1,1.38-.1c.86,0,.86-1.47,0-1.47H7.7C6.88,12.22,6.89,13.66,7.7,13.66Z"/><path class="cls-1" d="M17.29,18.15c-.39-1-1.73-4.75-2-5.28a1.05,1.05,0,0,0-.91-.42.81.81,0,0,0-.78.42c-.34.76-1.56,4.32-2,5.27-.3.68,1,1.24,1.27.55l.28-1h2.53s-.09,0,.24.93C16.25,19.37,17.56,18.87,17.29,18.15Zm-3.64-1.71L14.49,14l.77,2.43Z"/><path class="cls-1" d="M21.16,17.58H19.32s0-3.61,0-4.49a.75.75,0,0,0-1.49,0V18.2s-.11.78.55.78h2.78C21.81,19,21.81,17.58,21.16,17.58Z"/><path class="cls-1" d="M23.44,18.58V16.69l.42-.33,1.82,2.5c.37.49,1.53-.39,1.16-.88l-1.93-2.57s1.31-1.43,1.83-1.95c.3-.3-.64-1.25-.94-1l-2.35,2.37s0-1.3,0-2c0-.28-.34-.41-.68-.41s-.74.15-.73.45c0,.53,0,5.33,0,5.69C22,19.15,23.44,19.14,23.44,18.58Z"/></g></g></svg>