<svg xmlns="http://www.w3.org/2000/svg" viewBox="0 0 34 34"><g id="Layer_2" data-name="Layer 2"><g id="back"><path d="M6.18,34H27.82A6.21,6.21,0,0,0,34,27.77V6.23A6.21,6.21,0,0,0,27.82,0H6.18A6.21,6.21,0,0,0,0,6.23V27.77A6.21,6.21,0,0,0,6.18,34Zm.75-9a9.16,9.16,0,0,0,5.69-2,4.57,4.57,0,0,1-4.28-3.2,4.66,4.66,0,0,0,2.07-.08,4.62,4.62,0,0,1-3.68-4.53v-.06a4.47,4.47,0,0,0,2.08.58,4.62,4.62,0,0,1-2-3.84,4.67,4.67,0,0,1,.62-2.32,13,13,0,0,0,9.44,4.82,4.51,4.51,0,0,1-.12-1.05,4.58,4.58,0,0,1,7.93-3.16,8.88,8.88,0,0,0,2.9-1.12,4.59,4.59,0,0,1-2,2.56,8.92,8.92,0,0,0,2.63-.73,9.14,9.14,0,0,1-2.29,2.39c0,.2,0,.4,0,.6a13,13,0,0,1-20,11.06A9.69,9.69,0,0,0,6.93,25Z"/></g></g></svg>