<svg id="Layer_1" data-name="Layer 1" xmlns="http://www.w3.org/2000/svg" viewBox="0 0 304.34 63.75"><path d="M832.66,543c-1.57-1.32-6.26-4.68-9-4.34-2.07.26-6.87,3-8.54,4.07a1.25,1.25,0,0,1-1.69-1.78l15.34-21.86-14.42.12,0-2.5,16.85-.14a1.25,1.25,0,0,1,1.12.67,1.27,1.27,0,0,1-.09,1.3L818.66,537.9a17.49,17.49,0,0,1,4.73-1.73c4.28-.54,10.22,4.35,10.88,4.91Z" transform="translate(-813.25 -508.25)"/><path d="M1080.24,571.89a1.25,1.25,0,0,1-.76-2.24L1097.31,556l-17.08,0v-2.5l20.76.07a1.25,1.25,0,0,1,.75,2.24l-17.8,13.63,18.55,0v2.5l-22.25.06Z" transform="translate(-813.25 -508.25)"/><rect x="1037.78" y="515.37" width="2.5" height="38.77" transform="translate(-815.53 -503.8) rotate(-0.25)"/><path d="M1045.08,572l-1.5-2c4.53-3.4,4.59-9.24,4.59-9.3l-.21-52.22h2.5l.21,52.22C1050.67,561,1050.64,567.84,1045.08,572Z" transform="translate(-813.25 -508.25)"/><path d="M960.14,572l-1.5-2c4.57-3.43,4.59-9.24,4.59-9.3L963,510.44h2.5l.21,50.27C965.73,561,965.7,567.84,960.14,572Z" transform="translate(-813.25 -508.25)"/><path d="M1016.32,540.68a10.07,10.07,0,1,1,10.06-10.19h0a10.05,10.05,0,0,1-9.93,10.18Zm0-17.63h-.1a7.56,7.56,0,1,0,7.65,7.47h0a7.56,7.56,0,0,0-7.55-7.47Z" transform="translate(-813.25 -508.25)"/><path d="M939.36,537.47a10.06,10.06,0,1,1,7-17.26,10,10,0,0,1,3,7.07h0a10.07,10.07,0,0,1-9.93,10.19Zm0-17.62h-.09a7.56,7.56,0,1,0,7.65,7.46h0a7.54,7.54,0,0,0-7.56-7.46Z" transform="translate(-813.25 -508.25)"/><path d="M924.75,557.6l0-2.5c.24,0,25.29-2.05,38.83-13.18l1.59,1.93C950.93,555.51,925,557.59,924.75,557.6Z" transform="translate(-813.25 -508.25)"/><rect x="1030.42" y="524.13" width="8.25" height="2.5" transform="translate(-815.5 -503.8) rotate(-0.25)"/><rect x="1030.3" y="533.92" width="8.09" height="2.5" transform="translate(-815.54 -503.81) rotate(-0.25)"/><rect x="845.31" y="515.37" width="2.5" height="38.77" transform="translate(-815.53 -504.63) rotate(-0.25)"/><path d="M852.6,572l-1.5-2c4.57-3.43,4.6-9.24,4.6-9.3l-.22-52.22H858l.22,52.22C858.2,561,858.16,567.84,852.6,572Z" transform="translate(-813.25 -508.25)"/><rect x="837.95" y="527.38" width="8.25" height="2.5" transform="translate(-815.51 -504.63) rotate(-0.25)"/><rect x="251.88" y="29.11" width="52.46" height="2.5"/><path d="M1077.26,530.92l-.61-2.42c7.49-1.9,14.3-13.41,15.24-20.25l2.47.34C1093.35,516,1086,528.71,1077.26,530.92Z" transform="translate(-813.25 -508.25)"/><rect x="1096.36" y="514.68" width="2.5" height="18.61" transform="translate(-812.37 541.55) rotate(-51.13)"/><rect x="276.85" y="30.94" width="2.5" height="8.28"/><rect x="56.94" y="47.43" width="47.27" height="2.5"/><rect x="78.44" y="38.08" width="2.5" height="10.02"/><path d="M903.94,540.82l-20.9,0a1.25,1.25,0,0,1-1.25-1.25V528.46a1.26,1.26,0,0,1,.71-1.13,1.45,1.45,0,0,1,.57-.14l18.2-.07v-8.59l-18.71,0V516l20,0a1.25,1.25,0,0,1,1.25,1.25v11.09a1.26,1.26,0,0,1-1.25,1.25l-18.23.07v8.6l19.65,0Z" transform="translate(-813.25 -508.25)"/></svg>