<?xml version="1.0" encoding="UTF-8" standalone="no"?>
<!DOCTYPE svg PUBLIC "-//W3C//DTD SVG 1.1//EN" "http://www.w3.org/Graphics/SVG/1.1/DTD/svg11.dtd">
<svg xmlns="http://www.w3.org/2000/svg" xmlns:xl="http://www.w3.org/1999/xlink" xmlns:dc="http://purl.org/dc/elements/1.1/" version="1.1" viewBox="829.2501 43.1568 262.6597 50.398" width="262.6597" height="50.398">
  <defs/>
  <metadata> Produced by OmniGraffle 7.9.4 
    <dc:date>2020-09-12 21:23:38 +0000</dc:date>
  </metadata>
  <g id="Canvas_5" fill="none" stroke="none" stroke-dasharray="none" fill-opacity="1" stroke-opacity="1">
    <title>Canvas 5</title>
    <g id="Canvas_5: Layer 1">
      <title>Layer 1</title>
      <g id="Graphic_42">
        <path d="M 871.5391 47.1318 C 871.4341 47.6618 871.3811 48.3508 871.3811 49.0928 L 871.3811 78.3988 C 871.3811 81.7888 871.2741 84.7578 870.9571 87.1948 C 870.5331 91.4878 869.7381 93.5548 868.5191 93.5548 C 867.5641 93.5548 867.1411 91.4878 867.1411 87.3008 L 867.1411 47.6618 C 866.3461 46.4438 864.8101 45.4358 862.6371 44.6938 C 862.1071 44.5348 861.8421 44.2698 861.8421 43.9518 C 861.8421 43.4218 862.5841 43.1568 864.0671 43.1568 C 865.7641 43.1568 867.8301 43.5808 870.3201 44.4828 C 871.2741 44.7468 871.6991 45.2248 871.6991 45.9658 C 871.6991 46.3368 871.6451 46.7078 871.5391 47.1318 M 862.3181 52.7488 L 862.3181 74.5288 C 862.3181 77.3908 862.2131 80.0408 862.0001 82.4788 C 861.5231 87.3008 860.7281 89.7378 859.4571 89.7378 C 858.6091 89.7378 858.1851 87.7778 858.1851 83.8568 L 858.1851 66.7928 C 857.4961 66.7928 856.8601 66.8988 856.2771 66.9508 C 855.5881 67.1108 855.1111 67.2698 854.8471 67.4278 C 854.3691 67.6938 854.0521 67.7988 853.7871 67.7988 C 853.5211 67.7988 853.2571 67.7458 852.8861 67.5878 C 851.6131 67.1108 850.5551 66.4218 849.6531 65.7328 C 849.2821 65.4678 849.0701 65.2028 849.0701 64.9898 C 849.0701 64.7788 849.2281 64.6188 849.4941 64.5668 C 849.6531 64.5138 849.8121 64.5138 850.0771 64.5668 C 851.4021 64.6728 852.8331 64.7258 854.1581 64.6728 C 855.4821 64.6728 856.8071 64.6188 858.1851 64.4608 L 858.1851 51.3188 C 857.5491 50.1528 856.1721 49.2518 854.1581 48.5628 C 853.5741 48.4038 853.3101 48.1388 853.3101 47.7678 C 853.3101 47.2378 853.9981 46.9728 855.4821 46.9728 C 857.1251 46.9728 859.0861 47.3438 861.3651 48.1918 C 862.1601 48.4568 862.5311 48.9858 862.5311 49.7288 C 862.5311 50.3638 862.3181 52.1128 862.3181 52.7488 M 852.0381 54.7628 C 851.8791 54.9218 851.6131 55.2928 851.2961 55.7698 C 849.9711 59.1088 848.2751 62.4998 845.7851 65.9448 L 848.2751 68.9118 C 848.9651 69.8658 849.9711 70.5548 851.0841 70.9788 C 851.6671 71.2968 852.1441 71.7208 852.5151 72.3578 C 853.6281 74.1058 854.1581 75.8008 854.2111 77.2328 C 854.2111 78.1328 853.7341 78.5568 852.8331 78.6108 C 852.3031 78.6108 851.7201 78.1328 851.0311 77.1268 L 844.2481 67.9588 C 843.9301 68.3288 843.5591 68.7538 843.2401 69.1238 C 839.4261 73.4698 835.3981 76.9668 830.6291 79.6698 C 830.3101 79.9358 830.0451 79.9878 829.8341 79.9878 C 829.4631 79.9878 829.2501 79.7228 829.2501 79.3518 C 829.2501 79.0868 829.4101 78.8218 829.7811 78.5568 C 833.0141 76.1188 837.0941 71.6148 840.4321 67.0038 C 843.9301 62.1818 845.4671 58.6848 846.6331 55.3458 C 843.1351 55.5048 839.9551 55.6638 838.5241 55.9288 C 837.9941 55.9828 837.3581 56.1938 836.6701 56.5648 C 836.4041 56.7238 836.1401 56.7778 835.8751 56.7778 C 834.9751 56.7778 833.4371 56.0348 831.2111 54.4448 C 830.6821 54.1268 830.4161 53.8088 830.4691 53.5438 C 830.4691 53.1738 830.7341 53.0138 831.3171 53.0678 C 832.9601 53.2788 834.6561 53.3848 836.5111 53.4378 C 840.0081 53.4908 843.6651 53.3318 846.1021 53.0678 C 847.2151 52.9078 847.7461 52.4848 848.5411 52.4848 C 849.7061 52.3788 850.7661 52.5898 851.7731 52.8558 C 852.4081 53.0138 852.7271 53.2788 852.7271 53.6508 C 852.7271 53.9688 852.5151 54.3388 852.0381 54.7628" fill="black"/>
      </g>
      <g id="Graphic_43">
        <path d="M 923.584 84.1738 C 921.359 84.0158 919.239 83.9098 917.119 83.9098 C 907.58 83.9098 898.359 84.1208 891.576 84.6518 C 890.517 84.7048 889.722 84.8108 889.086 84.9158 C 887.178 85.1818 886.012 85.9768 885.376 85.9768 C 885.111 85.9768 884.846 85.9238 884.475 85.8178 C 882.621 85.2868 880.766 84.3338 878.911 83.1148 C 878.381 82.7438 878.116 82.4258 878.116 82.0548 C 878.116 81.5778 878.486 81.4188 879.335 81.5778 C 881.561 82.0018 884.157 82.1598 887.125 82.2138 C 890.888 82.2138 895.393 82.1598 900.215 82.0018 L 900.215 72.6748 C 897.936 72.7288 895.816 72.7808 893.908 72.8338 C 889.563 72.9918 888.186 71.5628 888.186 68.0648 L 888.186 61.9168 C 887.602 61.2288 886.489 60.6978 884.899 60.2748 C 884.264 60.0628 883.998 59.8508 883.998 59.5858 C 883.998 59.0018 884.475 58.7368 885.482 58.7368 C 887.814 58.7368 889.615 58.8438 891.047 59.0558 C 891.418 59.1088 892.213 59.4798 893.537 59.4798 C 900.268 59.4798 905.99 59.3198 910.495 59.0558 C 910.76 59.0558 910.973 58.9488 911.131 58.6848 C 911.344 56.0348 911.396 53.1198 911.344 50.6828 C 906.892 50.6288 902.176 50.7888 897.671 51.0528 C 895.393 51.2128 893.643 51.5298 892.584 52.1128 C 892.159 52.2728 891.842 52.3788 891.576 52.3788 C 891.258 52.3788 890.888 52.3248 890.517 52.1658 C 888.609 51.4238 887.02 50.6288 885.801 49.7288 C 885.27 49.3578 885.006 48.9858 885.006 48.7218 C 885.006 48.2438 885.376 48.0858 886.118 48.1918 C 888.291 48.5628 890.569 48.7218 892.954 48.7218 C 899.049 48.7218 904.931 48.5628 910.283 48.1918 C 910.919 48.1918 912.456 47.6098 913.092 47.6098 C 914.046 47.6098 915.158 47.7678 916.272 48.0858 C 917.014 48.2978 917.332 48.6148 917.332 49.0928 C 917.332 49.3578 917.014 49.8338 916.272 50.4708 C 915.688 53.8088 915.105 56.7778 914.523 58.6848 C 915.848 59.0558 916.537 59.5318 916.537 60.2748 C 916.537 61.0158 916.06 61.3868 915.053 61.3868 C 906.732 61.4398 899.313 61.5998 892.795 61.8638 C 892.742 62.2878 892.689 62.6058 892.689 62.8708 L 892.689 68.9118 C 892.689 69.9188 893.166 70.3968 894.174 70.3968 C 897.617 70.4488 901.91 70.3968 906.044 70.1838 C 908.535 70.0778 910.23 69.8128 911.025 69.3888 C 911.873 68.9648 912.563 68.7538 913.039 68.6998 C 914.841 68.6478 916.431 68.7538 917.861 68.9648 C 919.027 69.1238 919.61 69.6538 919.61 70.6078 C 919.61 71.8798 918.815 72.5158 917.226 72.5158 C 912.615 72.5158 908.322 72.5688 904.348 72.6218 L 904.348 81.8958 C 906.839 81.7888 909.383 81.6838 911.926 81.5258 C 914.682 81.4188 916.431 81.1538 917.226 80.7828 C 918.073 80.3598 918.709 80.1468 919.292 80.1468 C 921.253 80.1468 922.949 80.3598 924.379 80.7308 C 925.439 81.0478 926.022 81.6308 926.022 82.4788 C 926.022 83.7498 925.174 84.3338 923.584 84.1738 Z" fill="black"/>
      </g>
      <g id="Graphic_44">
        <path d="M 945.4238 66.7402 C 949.9278 66.7402 953.0018 63.8242 953.0018 60.1682 C 953.0018 56.6172 949.9278 53.5972 945.4238 53.5972 C 940.9188 53.5972 937.8988 56.6172 937.8988 60.1682 C 937.8988 63.8242 940.9188 66.7402 945.4238 66.7402 M 944.2578 50.1522 C 944.6818 49.8342 944.8938 49.5692 944.8938 49.2522 C 944.8938 48.8812 944.6818 48.5622 944.0448 48.1912 C 943.6738 47.9272 943.4628 47.7152 943.4628 47.5032 C 943.4628 47.0782 943.7278 46.7612 944.5748 46.7612 C 945.7408 46.7612 946.9068 47.0252 947.9668 47.6622 C 948.3378 47.8732 948.6558 48.2982 948.6558 48.6682 C 948.6558 48.9332 948.3378 49.4632 947.7548 50.3112 C 953.4788 51.1592 957.1348 55.1342 957.1348 60.1152 C 957.1348 65.7322 952.5248 70.0252 945.4238 70.0252 C 938.2168 70.0252 933.5528 65.7322 933.5528 60.1152 C 933.5528 54.8162 937.8458 50.5762 944.2578 50.1522 M 969.1108 49.1452 L 969.1108 77.9742 C 969.1108 82.1602 968.9528 85.4462 968.6348 87.8852 C 968.1578 91.6992 967.3628 93.5542 966.1968 93.5542 C 965.2958 93.5542 964.8718 91.5942 964.8718 87.5662 L 964.8718 76.6492 C 961.9568 77.3902 957.2938 78.2392 952.1528 79.1402 C 949.7698 79.5642 945.5818 80.0412 939.8068 80.6772 C 938.6938 80.7832 937.7388 81.0482 936.9448 81.4712 C 936.5728 81.6832 936.0958 81.7362 935.6718 81.7362 C 934.4528 81.7362 932.2288 80.6772 929.1018 78.6102 C 928.6248 78.2922 928.3598 77.9742 928.3598 77.6032 C 928.3598 77.1272 928.7828 76.9672 929.5778 77.0202 C 932.2288 77.3902 934.9308 77.4972 937.6328 77.3382 C 942.9858 77.1792 947.5958 76.8082 951.4118 76.3852 C 956.7638 75.8012 961.7458 75.1122 964.8718 74.5292 L 964.8718 47.7672 C 963.9178 46.4962 962.3808 45.4892 960.0498 44.7472 C 959.5198 44.5882 959.2548 44.3232 959.2548 43.9522 C 959.2548 43.4222 959.9438 43.1572 961.3748 43.1572 C 963.3358 43.1572 965.5608 43.5812 968.1048 44.4292 C 968.9528 44.6942 969.3768 45.2242 969.3768 45.9662 C 969.3768 46.6012 969.1108 48.2982 969.1108 49.1452" fill="black"/>
      </g>
      <g id="Graphic_45">
        <path d="M 1037.375 47.1318 C 1037.268 47.6618 1037.215 48.3508 1037.215 49.0928 L 1037.215 78.3988 C 1037.215 81.7888 1037.109 84.7578 1036.844 87.1948 C 1036.42 91.4878 1035.625 93.5548 1034.354 93.5548 C 1033.453 93.5548 1033.029 91.4878 1033.029 87.3008 L 1033.029 47.6618 C 1032.182 46.4438 1030.697 45.4358 1028.523 44.6938 C 1027.994 44.5348 1027.729 44.2698 1027.729 43.9518 C 1027.729 43.4218 1028.471 43.1568 1029.955 43.1568 C 1031.598 43.1568 1033.717 43.5808 1036.209 44.4828 C 1037.109 44.7468 1037.533 45.2248 1037.533 45.9658 C 1037.533 46.3368 1037.48 46.7078 1037.375 47.1318 M 1017.342 60.2208 C 1018.084 61.6528 1018.455 63.2418 1018.455 64.9378 C 1018.455 66.5798 1018.084 68.0648 1017.449 69.4428 L 1019.834 69.4428 C 1020.787 69.3888 1022.166 69.3358 1023.914 69.2308 L 1023.914 59.6918 C 1022.748 59.6918 1021.74 59.7438 1020.84 59.8508 C 1020.363 59.9028 1018.986 60.5388 1018.615 60.5388 C 1018.35 60.5388 1017.979 60.4858 1017.713 60.3808 C 1017.607 60.3268 1017.449 60.2748 1017.342 60.2208 M 1007.379 71.7208 C 1011.354 71.7208 1014.428 68.7538 1014.428 64.7788 C 1014.428 60.8048 1011.354 57.9428 1007.379 57.9428 C 1003.299 57.9428 1000.385 60.8048 1000.385 64.7788 C 1000.385 68.7538 1003.299 71.7208 1007.379 71.7208 M 1009.5 54.7098 C 1011.777 55.0808 1013.793 56.0878 1015.275 57.4658 C 1016.441 57.5718 1017.66 57.6248 1019.145 57.5718 C 1020.469 57.5718 1022.059 57.5188 1023.914 57.3598 L 1023.914 51.2658 C 1023.277 50.1528 1021.953 49.2518 1019.939 48.5628 C 1019.355 48.4038 1019.092 48.1388 1019.092 47.7678 C 1019.092 47.2378 1019.781 46.9728 1021.211 46.9728 C 1022.906 46.9728 1024.867 47.3438 1027.146 48.1918 C 1027.941 48.4568 1028.312 48.9858 1028.312 49.7288 C 1028.312 50.4178 1028.1 52.0608 1028.1 52.7488 L 1028.1 74.5818 C 1028.1 77.4438 1027.994 80.0938 1027.783 82.5308 C 1027.359 87.3538 1026.457 89.7918 1025.238 89.7918 C 1024.391 89.7918 1023.914 87.8308 1023.914 83.9098 L 1023.914 71.5088 C 1022.961 71.5628 1022.166 71.6148 1021.529 71.6678 C 1021.053 71.7738 1019.516 72.4628 1019.25 72.4628 C 1018.986 72.4628 1018.721 72.4098 1018.402 72.2508 C 1017.66 71.9858 1017.025 71.6148 1016.336 71.2438 C 1014.375 73.7348 1011.248 75.3238 1007.379 75.3238 C 1000.703 75.3238 996.092 70.7138 996.092 64.9378 C 996.092 59.5318 1000.119 55.1338 1006.107 54.6038 C 1006.479 54.3388 1006.744 53.9688 1006.744 53.7028 C 1006.744 53.3848 1006.584 53.0138 1005.949 52.6428 C 1005.578 52.4318 1005.42 52.2188 1005.42 51.9538 C 1005.42 51.6368 1005.736 51.3188 1006.531 51.3188 C 1007.434 51.3188 1008.705 51.6368 1009.605 52.1658 C 1010.082 52.4318 1010.242 52.7488 1010.242 53.0678 C 1010.242 53.5438 1009.924 54.1268 1009.5 54.7098" fill="black"/>
      </g>
      <g id="Graphic_46">
        <path d="M 1072.0898 48.6152 C 1071.2948 49.6762 1070.4468 50.7352 1069.4938 51.7422 L 1075.3768 54.2862 C 1076.1718 54.6562 1077.3358 54.9222 1078.8728 55.0812 C 1080.3578 55.2402 1081.3648 55.3982 1081.8418 55.6112 C 1085.4978 57.5182 1087.3538 59.0022 1087.3538 60.1152 C 1087.3538 61.0152 1086.8748 61.5462 1086.0798 61.5462 C 1085.4448 61.5462 1084.8088 61.2812 1084.0668 60.9632 L 1067.6918 53.5442 C 1066.1538 54.9742 1064.3538 56.4062 1062.4448 57.6252 C 1058.8418 59.9572 1054.7618 61.7052 1050.6288 63.0292 C 1049.9918 63.1892 1049.6738 63.2952 1049.5158 63.2952 C 1049.0918 63.2952 1048.8788 63.0832 1048.8788 62.6592 C 1048.8788 62.3412 1049.1448 62.0762 1049.7268 61.8102 C 1053.0668 60.2202 1056.5098 58.2612 1059.6898 55.8222 C 1063.0288 53.1742 1065.5198 50.3642 1067.1098 47.9272 C 1066.8438 47.2912 1065.7308 46.5492 1063.9828 45.6482 C 1063.3458 45.3832 1063.0818 45.0642 1063.0818 44.8012 C 1063.0818 44.2692 1063.6108 44.0582 1064.7248 44.0582 C 1064.9878 44.0582 1065.4138 44.1112 1065.8908 44.2172 C 1068.2758 44.7472 1070.1838 45.3302 1071.5078 46.0192 C 1072.2498 46.3372 1072.5668 46.7612 1072.5668 47.2382 C 1072.5668 47.7152 1072.4078 48.1382 1072.0898 48.6152 M 1081.7888 91.2222 C 1073.0978 91.1702 1065.8378 91.1702 1060.0608 91.3282 C 1056.9858 91.4882 1055.5038 90.1092 1055.5038 87.3012 L 1055.5038 83.8032 C 1054.7088 82.9552 1053.5958 82.3732 1052.1638 82.1072 C 1051.6348 81.9492 1051.3688 81.6832 1051.3688 81.3122 C 1051.3688 80.8882 1051.7928 80.6772 1052.6948 80.6242 C 1054.5488 80.5702 1056.4568 80.7302 1058.3128 80.9942 C 1058.7358 81.0482 1059.4788 81.4192 1060.8028 81.4192 C 1065.8378 81.4712 1070.7658 81.3122 1075.5878 81.0482 C 1075.8538 81.0482 1076.0648 80.9412 1076.2248 80.6772 C 1076.3298 79.6172 1076.3828 78.0802 1076.3298 75.9072 C 1070.8708 75.9072 1066.3668 76.0132 1063.3458 76.1722 C 1061.5978 76.3322 1060.3258 76.5432 1059.6368 76.9142 C 1059.1078 77.1792 1058.6838 77.2852 1058.4178 77.2852 C 1057.1468 77.2852 1055.2908 76.4372 1052.8538 74.6362 C 1052.4828 74.3712 1052.3238 74.1582 1052.3238 73.8932 C 1052.3238 73.5232 1052.6948 73.3632 1053.4898 73.4692 C 1055.1858 73.7342 1057.0938 73.8932 1059.2128 73.9472 C 1061.6508 74.0002 1064.0878 74.0002 1066.4728 73.9472 C 1066.3148 73.3632 1066.2618 72.5682 1066.2618 71.5622 L 1066.2618 67.8522 C 1062.9218 67.9592 1059.9018 68.1172 1057.4648 68.2762 C 1056.4038 68.3292 1055.6098 68.4352 1054.9728 68.5412 C 1053.0668 68.8062 1051.9008 69.6542 1051.2638 69.6542 C 1050.9978 69.6542 1050.6818 69.6012 1050.3628 69.5492 C 1048.3498 68.8062 1046.4418 67.8522 1044.7988 66.7402 C 1044.2698 66.3692 1044.0038 66.0512 1044.0038 65.6792 C 1044.0038 65.2562 1044.3748 65.0962 1045.2228 65.2562 C 1047.5548 65.6272 1050.1508 65.8392 1053.0118 65.8392 C 1060.8558 65.8392 1069.8128 65.6792 1077.8148 65.3082 C 1080.5698 65.1502 1082.3708 64.8852 1083.1128 64.5132 C 1083.9608 64.1422 1084.5978 63.8782 1085.1798 63.8782 C 1087.1408 63.8782 1088.8358 64.1422 1090.2678 64.5132 C 1091.3278 64.8322 1091.9098 65.4142 1091.9098 66.2092 C 1091.9098 67.4812 1091.0628 68.0642 1089.4728 67.9052 C 1087.2458 67.7462 1085.1268 67.6402 1083.0078 67.6402 C 1078.5548 67.6402 1074.3168 67.6932 1070.4468 67.7462 L 1070.4468 68.0112 C 1070.4468 70.7672 1070.1838 72.6752 1069.7048 73.8412 C 1071.7188 73.7872 1073.6798 73.6812 1075.6408 73.5232 C 1076.1168 73.4692 1077.3908 72.9392 1078.0778 72.9392 C 1079.0328 72.9392 1080.1988 73.0982 1081.5238 73.4692 C 1081.9998 73.6292 1082.2658 73.8412 1082.2658 74.1582 C 1082.2658 74.7422 1081.1528 75.4832 1081.0998 75.8542 C 1080.5698 78.0272 1080.0388 79.6172 1079.6148 80.6772 C 1080.8868 80.9942 1081.5238 81.4712 1081.5238 82.1602 C 1081.5238 82.8492 1081.0468 83.2202 1080.0388 83.2732 C 1071.2948 83.3792 1064.6718 83.5392 1060.1658 83.6972 C 1060.1128 84.0152 1060.1128 84.3342 1060.1128 84.7052 L 1060.1128 87.7242 C 1060.1128 88.5722 1060.4318 88.9972 1061.0688 88.9972 C 1064.6188 89.1032 1067.9568 89.0502 1071.1898 88.8902 C 1073.6268 88.7852 1075.3768 88.4672 1076.3828 87.9372 C 1077.1778 87.5132 1077.9198 87.3012 1078.4488 87.3012 C 1081.6288 87.3012 1084.1188 87.5662 1084.1188 89.3672 C 1084.1188 90.5872 1083.3788 91.2222 1081.7888 91.2222" fill="black"/>
      </g>
    </g>
  </g>
</svg>

